<svg xmlns="http://www.w3.org/2000/svg" width="114.253" height="56" viewBox="0 0 114.253 56">
  <g id="Grupo_17359" data-name="Grupo 17359" transform="translate(0)">
    <path id="Caminho_3892" data-name="Caminho 3892" d="M362.1,116.843a2.987,2.987,0,0,0-4.007,1.335l-6.29,12.579-6.289-12.579a2.987,2.987,0,0,0-5.344,2.672l8.961,17.922a2.987,2.987,0,0,0,5.344,0l8.961-17.922a2.987,2.987,0,0,0-1.335-4.007" transform="translate(-275.636 -107.566)" fill="#0dcee6"/>
    <path id="Caminho_3893" data-name="Caminho 3893" d="M307.428,118.626a2.988,2.988,0,0,0-4.225,0L290.38,131.449V111.777a2.987,2.987,0,0,0-5.974,0V138.66a2.987,2.987,0,0,0,5.1,2.112l6.849-6.848,6.848,6.848a2.987,2.987,0,0,0,4.225-4.224l-6.849-6.849,6.849-6.848a2.988,2.988,0,0,0,0-4.225" transform="translate(-284.406 -108.79)" fill="#0dcee6"/>
    <path id="Caminho_3894" data-name="Caminho 3894" d="M311.895,116.528a2.987,2.987,0,0,0-2.987,2.987v17.922a2.987,2.987,0,0,0,5.974,0V119.515a2.987,2.987,0,0,0-2.987-2.987" transform="translate(-280.531 -107.566)" fill="#0dcee6"/>
    <path id="Caminho_3895" data-name="Caminho 3895" d="M330.629,116.205a9.248,9.248,0,0,0-6.757,2.921,2.985,2.985,0,0,0-5.938.44v17.922a2.987,2.987,0,1,0,5.974,0v-9.335a5.974,5.974,0,0,1,11.948,0v9.335a2.987,2.987,0,0,0,5.975,0v-9.335c0-6.589-4.614-11.949-11.2-11.949" transform="translate(-279.103 -107.617)" fill="#0dcee6"/>
    <path id="Caminho_3896" data-name="Caminho 3896" d="M311.895,108.79a2.987,2.987,0,1,0,2.987,2.988,2.987,2.987,0,0,0-2.987-2.988" transform="translate(-280.531 -108.79)" fill="#0dcee6"/>
    <path id="Caminho_3897" data-name="Caminho 3897" d="M374.1,134.874a6.347,6.347,0,1,1,6.348-6.348,6.354,6.354,0,0,1-6.348,6.348m0-18.669a12.322,12.322,0,1,0,12.322,12.322A12.335,12.335,0,0,0,374.1,116.205" transform="translate(-272.169 -107.617)" fill="#0dcee6"/>
  </g>
  <!-- <text x="10" y="60" font-family="Montserrat, sans-serif" font-size="20" fill="#0dcee6">extended</text> -->
</svg>
