<svg
	xmlns="http://www.w3.org/2000/svg"
	version="1.1"
	xmlns:xlink="http://www.w3.org/1999/xlink"
	xmlns:svgjs="http://svgjs.dev/svgjs"
	width="48"
	height="48"
>
	<svg
		id="SvgjsSvg1037"
		data-name="icon app big"
		xmlns="http://www.w3.org/2000/svg"
		viewBox="0 0 48 48"
	>
		<g
			id="SvgjsG1036"
			data-name="Group 23435"
			transform="translate(0 0)"
		>
			<path
				id="SvgjsPath1035"
				data-name="path 6121"
				d="M1067.314,102.983a24,24,0,0,0-24-24,2.25,2.25,0,0,0,0,4.5,19.5,19.5,0,1,1-13.789,5.711,2.25,2.25,0,0,0-3.183-3.181,24,24,0,0,0,33.942,33.941h0a23.846,23.846,0,0,0,7.029-16.971"
				transform="translate(-1019.314 -78.983)"
				fill="#0dcee6"
			></path>
			<path
				id="SvgjsPath1034"
				data-name="path 6122"
				d="M1039.453,120.722a18,18,0,0,0,25.482.028h0a18,18,0,0,0-12.728-30.728,2.25,2.25,0,1,0,0,4.5,13.5,13.5,0,0,1,9.545,23.045h0a13.5,13.5,0,0,1-19.111-.021,2.25,2.25,0,1,0-3.188,3.175"
				transform="translate(-1028.206 -84.022)"
				fill="#8551d9"
			></path>
			<path
				id="SvgjsPath1033"
				data-name="path 6123"
				d="M1053.392,125.06a11.92,11.92,0,0,0,8.484-3.514h0a12,12,0,0,0-8.486-20.485,2.25,2.25,0,0,0,0,4.5,7.5,7.5,0,0,1,5.3,12.8h0a7.5,7.5,0,0,1-12.8-5.3,2.25,2.25,0,1,0-4.5,0,12,12,0,0,0,12,12"
				transform="translate(-1029.391 -89.06)"
				fill="#ffa252"
			></path>
		</g>
	</svg>
	<style>
		@media (prefers-color-scheme: light) {
			:root {
				filter: none;
			}
		}
		@media (prefers-color-scheme: dark) {
			:root {
				filter: none;
			}
		}
	</style>
</svg>
