<svg
	xmlns="http://www.w3.org/2000/svg"
	xmlns:xlink="http://www.w3.org/1999/xlink"
	viewBox="0 0 400 400"
	width="400"
	height="400"
	preserveAspectRatio="xMidYMid meet"
	style="width: 100%; height: 100%; transform: translate3d(0px, 0px, 0px); content-visibility: visible"
>
	<defs>
		<clipPath id="__lottie_element_11">
			<rect
				width="400"
				height="400"
				x="0"
				y="0"
			></rect>
		</clipPath>
	</defs>
	<g clip-path="url(#__lottie_element_11)">
		<g
			style="display: none"
			transform="matrix(0.9991863369941711,-0.04033176228404045,0.04033176228404045,0.9991863369941711,235.05245971679688,214.82533264160156)"
			opacity="1"
		>
			<g
				opacity="1"
				transform="matrix(1,0,0,1,-34.42599868774414,-16.226999282836914)"
			>
				<path
					stroke-linecap="round"
					stroke-linejoin="round"
					fill-opacity="0"
					stroke="rgb(235,237,238)"
					stroke-opacity="1"
					stroke-width="20"
					d=" M-5.067999839782715,-141.4219970703125 C-5.038000106811523,-141.42300415039062 -5.007999897003174,-141.4239959716797 -4.979000091552734,-141.4250030517578"
				></path>
			</g>
		</g>
		<g
			style="display: none"
			transform="matrix(0.9999426007270813,-0.010716823861002922,0.010716823861002922,0.9999426007270813,234.59793090820312,215.8571319580078)"
			opacity="1"
		>
			<g
				opacity="1"
				transform="matrix(1,0,0,1,-34.42599868774414,-16.226999282836914)"
			>
				<path
					stroke-linecap="round"
					stroke-linejoin="round"
					fill-opacity="0"
					stroke="rgb(248,151,85)"
					stroke-opacity="1"
					stroke-width="20"
					d=" M-5.7779998779296875,-141.39500427246094 C-5.51200008392334,-141.406005859375 -5.244999885559082,-141.41600036621094 -4.979000091552734,-141.4250030517578"
				></path>
			</g>
		</g>
		<g
			style="display: block"
			transform="matrix(1,0,0,1,234.42599487304688,216.2270050048828)"
			opacity="1"
		>
			<g
				opacity="1"
				transform="matrix(1,0,0,1,-34.42599868774414,-16.226999282836914)"
			>
				<path
					stroke-linecap="round"
					stroke-linejoin="round"
					fill-opacity="0"
					stroke="rgb(52,205,240)"
					stroke-opacity="1"
					stroke-width="20"
					d=" M0,-141.51199340820312 C51.86899948120117,-141.51199340820312 97.25900268554688,-113.54199981689453 121.89800262451172,-71.87699890136719"
				></path>
			</g>
		</g>
		<g
			transform="matrix(1,0,0,1,234.42599487304688,216.2270050048828)"
			opacity="1"
			style="display: block"
		>
			<g
				opacity="1"
				transform="matrix(1,0,0,1,-34.42599868774414,-16.226999282836914)"
			>
				<path
					stroke-linecap="round"
					stroke-linejoin="round"
					fill-opacity="0"
					stroke="rgb(113,62,209)"
					stroke-opacity="1"
					stroke-width="20"
					d=" M0,-141.51150512695312 C78.1001968383789,-141.51150512695312 141.51150512695312,-78.1001968383789 141.51150512695312,0 C141.51199340820312,23.535999298095703 135.7530059814453,45.73699951171875 125.56900024414062,65.27200317382812"
				></path>
			</g>
		</g>
	</g>
</svg>
